# xmcd CD database file
#
# Track frame offsets:
#	150
#	25697
#	38274
#	62734
#	80278
#	106836
#	125494
#	144152
#
# Disc length: 2069 seconds
#
# Revision: 0
# Processed by: cddbd v1.5.1PL2 Copyright (c) Steve Scherf et al.
# Submitted via: CDex 1.50
#
DISCID=54081308
DTITLE=Coleman Hawkins - Desafinado
DYEAR=1962
DGENRE=Jazz
TTITLE0=Desafinado
TTITLE1=I'm Looking Over A Four Leaf Clover (Jazz Samba)  
TTITLE2=Samba Para Bean
TTITLE3=I Remember You
TTITLE4=One Note Samba (Samba De Uma Nota So)
TTITLE5=O Pato (The Duck)
TTITLE6=Un Abraco No Bonfa (An Embrace To Bonfa)
TTITLE7=Stumpy Bossa Nova
EXTD=YEAR: 1962
EXTT0=
EXTT1=
EXTT2=
EXTT3=
EXTT4=
EXTT5=
EXTT6=
EXTT7=
PLAYORDER=
